<svg version="1.1" xmlns="http://www.w3.org/2000/svg" viewBox="0 0 530.5 233" width="530.5" height="233">
  <!-- svg-source:excalidraw -->
  
  <defs>
    <style class="style-fonts">
      @font-face {
        font-family: "Virgil";
        src: url("https://excalidraw.com/Virgil.woff2");
      }
      @font-face {
        font-family: "Cascadia";
        src: url("https://excalidraw.com/Cascadia.woff2");
      }
      @font-face {
        font-family: "Assistant";
        src: url("https://excalidraw.com/Assistant-Regular.woff2");
      }
    </style>
    
  </defs>
  <rect x="0" y="0" width="530.5" height="233" fill="#ffffff"></rect><g stroke-linecap="round" transform="translate(10 171.5) rotate(0 64.5 23.5)"><path d="M11.75 0 C49.86 0.96, 87.9 1.01, 117.25 0 M11.75 0 C51.21 0.11, 89.97 0.7, 117.25 0 M117.25 0 C124.32 0.12, 130.3 2.14, 129 11.75 M117.25 0 C123.47 1.46, 131.08 1.68, 129 11.75 M129 11.75 C127.77 19.54, 128.38 22.93, 129 35.25 M129 11.75 C128.23 15.88, 128.96 21.66, 129 35.25 M129 35.25 C128.79 42.44, 125.91 48.85, 117.25 47 M129 35.25 C130.32 42.15, 126.95 48.74, 117.25 47 M117.25 47 C73.63 45.12, 33.16 45.75, 11.75 47 M117.25 47 C89.39 48.17, 59.27 47.19, 11.75 47 M11.75 47 C5.65 45.26, 0.7 43.97, 0 35.25 M11.75 47 C4.28 45.6, 1.68 41.49, 0 35.25 M0 35.25 C-1.06 29.62, 1.42 21.15, 0 11.75 M0 35.25 C0.24 27.82, 0.51 19.51, 0 11.75 M0 11.75 C1.14 2.7, 5.09 -1.63, 11.75 0 M0 11.75 C-1.75 5.35, 5.96 -0.25, 11.75 0" stroke="#1e1e1e" stroke-width="2" fill="none"></path></g><g transform="translate(42.29999923706055 182.5) rotate(0 32.20000076293945 12.5)"><text x="32.20000076293945" y="0" font-family="Virgil, Segoe UI Emoji" font-size="20px" fill="#1e1e1e" text-anchor="middle" style="white-space: pre;" direction="ltr" dominant-baseline="text-before-edge">Source</text></g><g stroke-linecap="round" transform="translate(391.5 176) rotate(0 64.5 23.5)"><path d="M11.75 0 C52.43 1.25, 88.84 -0.22, 117.25 0 M11.75 0 C54.14 -1.09, 94.61 -0.6, 117.25 0 M117.25 0 C125.91 0.48, 127.99 2.36, 129 11.75 M117.25 0 C126.78 -1.87, 130.82 4.49, 129 11.75 M129 11.75 C131 16.24, 130.43 23.54, 129 35.25 M129 11.75 C128.14 17.47, 129.22 23.44, 129 35.25 M129 35.25 C130.88 43.79, 123.94 48.3, 117.25 47 M129 35.25 C127.85 41.15, 125.78 46.44, 117.25 47 M117.25 47 C88.58 46.67, 64.2 46.64, 11.75 47 M117.25 47 C93.21 47.73, 68.34 47.5, 11.75 47 M11.75 47 C3.89 47.76, -1.93 43.23, 0 35.25 M11.75 47 C4.41 45.88, -2.11 45.18, 0 35.25 M0 35.25 C0.03 25.93, -2.12 20.42, 0 11.75 M0 35.25 C-0.16 28.58, 0.54 21.05, 0 11.75 M0 11.75 C1.56 2.73, 3.5 -1.04, 11.75 0 M0 11.75 C1.32 5.4, 3.93 -2.14, 11.75 0" stroke="#1e1e1e" stroke-width="2" fill="none"></path></g><g transform="translate(418.0374984741211 187) rotate(0 37.962501525878906 12.5)"><text x="37.962501525878906" y="0" font-family="Virgil, Segoe UI Emoji" font-size="20px" fill="#1e1e1e" text-anchor="middle" style="white-space: pre;" direction="ltr" dominant-baseline="text-before-edge">Compiler</text></g><g stroke-linecap="round" transform="translate(193.5 10) rotate(0 72 24)"><path d="M12 0 C54.94 0.75, 98.51 1.29, 132 0 M12 0 C52.48 -1.7, 92.9 -1.63, 132 0 M132 0 C138.32 0.61, 143.51 3.22, 144 12 M132 0 C139.98 -0.08, 142.68 3.66, 144 12 M144 12 C143.43 21.94, 145.47 32.3, 144 36 M144 12 C144.45 19.86, 144.15 29.87, 144 36 M144 36 C143.02 42.16, 141.83 49.09, 132 48 M144 36 C146.2 44, 140.29 46.86, 132 48 M132 48 C107.49 48.72, 82.49 47.83, 12 48 M132 48 C88.84 48.73, 46.35 49.51, 12 48 M12 48 C5.29 48.01, -1.86 44.07, 0 36 M12 48 C2.07 47.58, -0.23 46.04, 0 36 M0 36 C1.72 28.09, 2 22.25, 0 12 M0 36 C-0.51 28.01, -0.35 20.91, 0 12 M0 12 C1.29 5.93, 2.22 1.57, 12 0 M0 12 C1.85 6.07, 3.58 -1.76, 12 0" stroke="#1e1e1e" stroke-width="2" fill="none"></path></g><g transform="translate(217.1500015258789 21.5) rotate(0 48.349998474121094 12.5)"><text x="48.349998474121094" y="0" font-family="Virgil, Segoe UI Emoji" font-size="20px" fill="#1e1e1e" text-anchor="middle" style="white-space: pre;" direction="ltr" dominant-baseline="text-before-edge">Blog Repo</text></g><g mask="url(#mask-m-W1hC3pxedZ6i1RKsBBy)" stroke-linecap="round"><g transform="translate(243.13177712368804 63.5) rotate(0 -59.37287802515954 50.5)"><path d="M0.05 0.94 C-19.82 17.71, -99.22 85.08, -119.22 101.72 M-1.38 0.39 C-21.45 17.33, -101.04 83.04, -120.41 99.98" stroke="#1e1e1e" stroke-width="2" fill="none"></path></g><g transform="translate(243.13177712368804 63.5) rotate(0 -59.37287802515954 50.5)"><path d="M-108 78.27 C-109.98 84.05, -114.1 89.44, -120.41 99.98 M-108 78.27 C-111 84.6, -115.48 91.4, -120.41 99.98" stroke="#1e1e1e" stroke-width="2" fill="none"></path></g><g transform="translate(243.13177712368804 63.5) rotate(0 -59.37287802515954 50.5)"><path d="M-96.96 91.33 C-102.39 93.16, -109.86 94.61, -120.41 99.98 M-96.96 91.33 C-103.09 93.99, -110.7 97.09, -120.41 99.98" stroke="#1e1e1e" stroke-width="2" fill="none"></path></g></g><mask id="mask-m-W1hC3pxedZ6i1RKsBBy"><rect x="0" y="0" fill="#fff" width="461.8775331740071" height="264.5"></rect><rect x="118.13389909852833" y="101.5" fill="#000" width="131.25" height="25" opacity="1"></rect></mask><g transform="translate(118.13389909852845 101.5) rotate(0 64.81705318621368 13.056506582135341)"><text x="65.625" y="0" font-family="Virgil, Segoe UI Emoji" font-size="20px" fill="#1e1e1e" text-anchor="middle" style="white-space: pre;" direction="ltr" dominant-baseline="text-before-edge">git submodule</text></g><g mask="url(#mask-3EZCZLOhTMyRdSpmO-tOe)" stroke-linecap="round"><g transform="translate(314.5246063245362 66.44349341786472) rotate(0 56.357512544559825 51.5)"><path d="M-0.27 -0.45 C18.48 16.88, 93.08 86.42, 112.05 103.67 M1.79 -1.73 C20.97 15.27, 95.84 84.21, 114.41 101.9" stroke="#1e1e1e" stroke-width="2" fill="none"></path></g><g transform="translate(314.5246063245362 66.44349341786472) rotate(0 56.357512544559825 51.5)"><path d="M91.4 92.12 C96.7 93.63, 104.63 98.7, 114.41 101.9 M91.4 92.12 C98.54 95.11, 104.97 98.07, 114.41 101.9" stroke="#1e1e1e" stroke-width="2" fill="none"></path></g><g transform="translate(314.5246063245362 66.44349341786472) rotate(0 56.357512544559825 51.5)"><path d="M103.07 79.61 C105.26 84.4, 110.12 92.77, 114.41 101.9 M103.07 79.61 C106.61 86.36, 109.48 93.12, 114.41 101.9" stroke="#1e1e1e" stroke-width="2" fill="none"></path></g></g><mask id="mask-3EZCZLOhTMyRdSpmO-tOe"><rect x="0" y="0" fill="#fff" width="527.2396314136558" height="269.4434934178647"></rect><rect x="305.25711886909596" y="105.44349341786472" fill="#000" width="131.25" height="25" opacity="1"></rect></mask><g transform="translate(305.2571188690961 105.44349341786472) rotate(0 66.3347970695234 11.969896551575516)"><text x="65.625" y="0" font-family="Virgil, Segoe UI Emoji" font-size="20px" fill="#1e1e1e" text-anchor="middle" style="white-space: pre;" direction="ltr" dominant-baseline="text-before-edge">git submodule</text></g></svg>